<svg xmlns="http://www.w3.org/2000/svg" viewBox="0 0 400 400">
  <defs>
    <radialGradient id="deep" cx="0.3" cy="0.25" r="1">
      <stop offset="0" stop-color="#1b0e3d"/>
      <stop offset="0.55" stop-color="#0a0a2e"/>
      <stop offset="1" stop-color="#020214"/>
    </radialGradient>
    <radialGradient id="neb1" cx="0.5" cy="0.5" r="0.5">
      <stop offset="0" stop-color="#b266ff" stop-opacity="0.45"/>
      <stop offset="1" stop-color="#b266ff" stop-opacity="0"/>
    </radialGradient>
    <radialGradient id="neb2" cx="0.5" cy="0.5" r="0.5">
      <stop offset="0" stop-color="#00b8ff" stop-opacity="0.35"/>
      <stop offset="1" stop-color="#00b8ff" stop-opacity="0"/>
    </radialGradient>
    <linearGradient id="planet" x1="0" y1="0" x2="1" y2="1">
      <stop offset="0" stop-color="#6b96e0"/>
      <stop offset="0.55" stop-color="#3a5db0"/>
      <stop offset="1" stop-color="#1c2c60"/>
    </linearGradient>
    <linearGradient id="ring" x1="0" y1="0" x2="1" y2="0">
      <stop offset="0" stop-color="#88ccff" stop-opacity="0"/>
      <stop offset="0.5" stop-color="#88ccff" stop-opacity="0.8"/>
      <stop offset="1" stop-color="#88ccff" stop-opacity="0"/>
    </linearGradient>
    <filter id="soft" x="-30%" y="-30%" width="160%" height="160%">
      <feGaussianBlur stdDeviation="4" result="b"/>
      <feMerge><feMergeNode in="b"/><feMergeNode in="SourceGraphic"/></feMerge>
    </filter>
  </defs>
  <rect width="400" height="400" fill="url(#deep)"/>
  <ellipse cx="110" cy="120" rx="150" ry="110" fill="url(#neb1)"/>
  <ellipse cx="320" cy="290" rx="130" ry="100" fill="url(#neb2)"/>
  <g fill="#ffffff">
    <circle cx="42" cy="60" r="1.6"/><circle cx="90" cy="200" r="1.2"/><circle cx="150" cy="90" r="1.8"/>
    <circle cx="210" cy="40" r="1.3"/><circle cx="60" cy="300" r="1.5"/><circle cx="130" cy="350" r="1.2"/>
    <circle cx="250" cy="330" r="1.6"/><circle cx="350" cy="70" r="1.4"/><circle cx="310" cy="150" r="1.2"/>
    <circle cx="370" cy="220" r="1.7"/><circle cx="180" cy="260" r="1.1"/><circle cx="30" cy="170" r="1.3"/>
    <circle cx="230" cy="140" r="2.2" opacity="0.95"/><circle cx="80" cy="120" r="1"/>
    <circle cx="300" cy="380" r="1.2"/><circle cx="390" cy="330" r="1"/>
  </g>
  <g transform="rotate(-18 252 196)">
    <ellipse cx="252" cy="196" rx="118" ry="30" fill="none" stroke="url(#ring)" stroke-width="7" filter="url(#soft)"/>
    <circle cx="252" cy="196" r="62" fill="url(#planet)"/>
    <path d="M190 196 a62 62 0 0 0 124 0 a118 26 0 0 1 -124 0" fill="#101a3c" opacity="0.35"/>
    <ellipse cx="252" cy="196" rx="118" ry="30" fill="none" stroke="url(#ring)" stroke-width="7" opacity="0.5"
      stroke-dasharray="0 118 236 0"/>
  </g>
  <g stroke="#ffffff" stroke-width="1.6" opacity="0.85" filter="url(#soft)">
    <line x1="70" y1="52" x2="112" y2="74"/>
  </g>
</svg>
